<svg width="35" height="35" viewBox="0 0 35 35" fill="none" xmlns="http://www.w3.org/2000/svg">
<rect width="35" height="35" rx="7" fill="white" fill-opacity="0.15"/>
<path fill-rule="evenodd" clip-rule="evenodd" d="M13.8195 9.04906C14.6939 9.00892 14.9727 9 17.2002 9C19.4276 9 19.7064 9.00966 20.5801 9.04906C21.4538 9.08846 22.0502 9.22746 22.572 9.4289C23.1184 9.6348 23.6142 9.95666 24.0242 10.3729C24.4416 10.781 24.7637 11.2746 24.9694 11.8202C25.1722 12.3405 25.3109 12.9352 25.3511 13.8049C25.3914 14.6783 25.4003 14.9563 25.4003 17.1766C25.4003 19.3977 25.3906 19.6757 25.3511 20.5476C25.3116 21.4173 25.1722 22.012 24.9694 22.5323C24.7637 23.078 24.4411 23.5723 24.0242 23.981C23.6142 24.3973 23.1184 24.7184 22.572 24.9236C22.0502 25.1258 21.4538 25.264 20.5816 25.3042C19.7064 25.3443 19.4276 25.3532 17.2002 25.3532C14.9727 25.3532 14.6939 25.3436 13.8195 25.3042C12.9473 25.2648 12.3509 25.1258 11.8291 24.9236C11.2818 24.7184 10.786 24.3967 10.3761 23.981C9.95896 23.5727 9.63612 23.0785 9.43014 22.533C9.22811 22.0127 9.08946 21.418 9.0492 20.5483C9.00895 19.6749 9 19.3969 9 17.1766C9 14.9555 9.00969 14.6775 9.0492 13.8064C9.08871 12.9352 9.22811 12.3405 9.43014 11.8202C9.63642 11.2746 9.95951 10.7805 10.3769 10.3722C10.7862 9.95629 11.2815 9.63439 11.8283 9.4289C12.3501 9.22746 12.9473 9.0892 13.8195 9.04906ZM20.5138 10.5208C19.649 10.4815 19.3896 10.4733 17.2002 10.4733C15.0107 10.4733 14.7513 10.4815 13.8865 10.5208C13.0867 10.5573 12.6528 10.6903 12.3636 10.8026C11.9811 10.9512 11.7075 11.1274 11.4205 11.4136C11.1485 11.6775 10.9391 11.9988 10.8078 12.3539C10.6952 12.6423 10.5618 13.0749 10.5252 13.8725C10.4857 14.7348 10.4775 14.9935 10.4775 17.1766C10.4775 19.3598 10.4857 19.6184 10.5252 20.4807C10.5618 21.2783 10.6952 21.7109 10.8078 21.9993C10.939 22.3539 11.1484 22.6757 11.4205 22.9396C11.6852 23.2109 12.008 23.4198 12.3636 23.5506C12.6528 23.6629 13.0867 23.7959 13.8865 23.8324C14.7513 23.8718 15.01 23.8799 17.2002 23.8799C19.3903 23.8799 19.649 23.8718 20.5138 23.8324C21.3137 23.7959 21.7475 23.6629 22.0368 23.5506C22.4192 23.402 22.6928 23.2258 22.9798 22.9396C23.2519 22.6757 23.4614 22.3539 23.5926 21.9993C23.7051 21.7109 23.8386 21.2783 23.8751 20.4807C23.9146 19.6184 23.9228 19.3598 23.9228 17.1766C23.9228 14.9935 23.9146 14.7348 23.8751 13.8725C23.8386 13.0749 23.7051 12.6423 23.5926 12.3539C23.4435 11.9726 23.2668 11.6998 22.9798 11.4136C22.7151 11.1423 22.3929 10.9336 22.0368 10.8026C21.7475 10.6903 21.3137 10.5573 20.5138 10.5208ZM16.1528 19.6972C16.7377 19.94 17.389 19.9728 17.9955 19.7899C18.602 19.6071 19.126 19.22 19.478 18.6947C19.83 18.1694 19.9883 17.5385 19.9256 16.9098C19.863 16.2811 19.5834 15.6936 19.1347 15.2477C18.8486 14.9626 18.5027 14.7443 18.1218 14.6085C17.741 14.4727 17.3347 14.4228 16.9322 14.4624C16.5297 14.502 16.141 14.6301 15.7941 14.8375C15.4472 15.0448 15.1507 15.3263 14.926 15.6616C14.7012 15.9969 14.5539 16.3777 14.4945 16.7767C14.4351 17.1756 14.4651 17.5827 14.5825 17.9686C14.6998 18.3546 14.9015 18.7098 15.173 19.0087C15.4445 19.3076 15.7792 19.5428 16.1528 19.6972ZM14.2198 14.2048C14.6112 13.8145 15.0758 13.5049 15.5872 13.2937C16.0986 13.0825 16.6466 12.9738 17.2002 12.9738C17.7537 12.9738 18.3018 13.0825 18.8131 13.2937C19.3245 13.5049 19.7892 13.8145 20.1805 14.2048C20.5719 14.595 20.8824 15.0584 21.0942 15.5683C21.306 16.0782 21.4151 16.6247 21.4151 17.1766C21.4151 17.7285 21.306 18.275 21.0942 18.7849C20.8824 19.2949 20.5719 19.7582 20.1805 20.1484C19.3901 20.9366 18.318 21.3794 17.2002 21.3794C16.0823 21.3794 15.0102 20.9366 14.2198 20.1484C13.4293 19.3603 12.9853 18.2913 12.9853 17.1766C12.9853 16.062 13.4293 14.993 14.2198 14.2048ZM22.3499 13.5997C22.4468 13.5085 22.5245 13.3988 22.5782 13.2771C22.6319 13.1554 22.6606 13.0242 22.6625 12.8913C22.6645 12.7583 22.6396 12.6264 22.5895 12.5032C22.5394 12.38 22.465 12.268 22.3707 12.174C22.2764 12.08 22.1642 12.0058 22.0406 11.9559C21.9171 11.9059 21.7847 11.8811 21.6514 11.8831C21.5181 11.885 21.3865 11.9136 21.2645 11.9671C21.1424 12.0207 21.0324 12.0981 20.9409 12.1948C20.763 12.3829 20.6656 12.6327 20.6693 12.8913C20.6731 13.1498 20.7778 13.3967 20.9612 13.5795C21.1445 13.7624 21.3921 13.8667 21.6514 13.8705C21.9107 13.8743 22.1612 13.7771 22.3499 13.5997Z" fill="white"/>
</svg>
