<svg width="33" height="33" viewBox="0 0 33 33" fill="none" xmlns="http://www.w3.org/2000/svg">
<path d="M16.5 23.5386C15.1279 23.5386 13.7866 23.1387 12.6457 22.3895C11.5049 21.6403 10.6157 20.5753 10.0906 19.3294C9.56551 18.0835 9.42812 16.7125 9.69581 15.3898C9.96349 14.0672 10.6242 12.8522 11.5944 11.8986C12.5647 10.945 13.8008 10.2956 15.1466 10.0325C16.4923 9.76941 17.8872 9.90444 19.1549 10.4205C20.4225 10.9366 21.506 11.8106 22.2683 12.9319C23.0306 14.0532 23.4375 15.3715 23.4375 16.7201C23.4474 17.6182 23.2747 18.5092 22.9296 19.3409C22.5845 20.1726 22.0738 20.9281 21.4276 21.5632C20.7814 22.1983 20.0127 22.7002 19.1665 23.0394C18.3204 23.3787 17.4138 23.5484 16.5 23.5386ZM16.5 12.1743C15.8888 12.1607 15.2812 12.2689 14.7138 12.4925C14.1463 12.7161 13.6309 13.0505 13.1987 13.4753C12.7664 13.9002 12.4262 14.4068 12.1987 14.9644C11.9712 15.5221 11.8611 16.1194 11.875 16.7201C11.8611 17.3208 11.9712 17.918 12.1987 18.4757C12.4262 19.0334 12.7664 19.5399 13.1987 19.9648C13.6309 20.3897 14.1463 20.724 14.7138 20.9476C15.2812 21.1712 15.8888 21.2794 16.5 21.2658C17.1112 21.2794 17.7188 21.1712 18.2862 20.9476C18.8537 20.724 19.3691 20.3897 19.8013 19.9648C20.2336 19.5399 20.5738 19.0334 20.8013 18.4757C21.0288 17.918 21.1389 17.3208 21.125 16.7201C21.1389 16.1194 21.0288 15.5221 20.8013 14.9644C20.5738 14.4068 20.2336 13.9002 19.8013 13.4753C19.3691 13.0505 18.8537 12.7161 18.2862 12.4925C17.7188 12.2689 17.1112 12.1607 16.5 12.1743Z" fill="url(#paint0_linear_469_530)"/>
<path d="M31.8837 11.0879L29.1549 6.4422C28.8878 5.9867 28.4681 5.63642 27.9675 5.45113C27.467 5.26585 26.9164 5.25705 26.41 5.42623L23.5957 6.36151C23.1107 6.04057 22.6038 5.75276 22.0787 5.5001L21.4971 2.63744C21.3923 2.122 21.1089 1.65821 20.6953 1.32502C20.2817 0.991832 19.7633 0.809851 19.2285 0.810059H13.771C13.2362 0.809851 12.7179 0.991832 12.3042 1.32502C11.8906 1.65821 11.6073 2.122 11.5025 2.63744L10.9209 5.5001C10.3898 5.74999 9.87713 6.03592 9.38651 6.35583L6.58839 5.42623C6.08223 5.25764 5.53226 5.26675 5.03216 5.452C4.53207 5.63725 4.11279 5.98719 3.84576 6.4422L1.11701 11.0879C0.849701 11.5428 0.750968 12.0747 0.837606 12.5931C0.924244 13.1114 1.1909 13.5843 1.59223 13.9313L3.82495 15.8598C3.8053 16.1462 3.78101 16.4303 3.78101 16.7201C3.78101 17.0133 3.79258 17.303 3.81339 17.5906L1.59339 19.5089C1.19169 19.8555 0.924582 20.3282 0.83752 20.8466C0.750458 21.365 0.848815 21.897 1.11586 22.3522L3.84461 26.9979C4.11155 27.4536 4.53113 27.8041 5.03174 27.9896C5.53236 28.1751 6.08295 28.1841 6.58955 28.015L9.40386 27.0786C9.88869 27.4001 10.3956 27.6883 10.9209 27.9412L11.5025 30.8027C11.6073 31.3181 11.8906 31.7819 12.3042 32.1151C12.7179 32.4483 13.2362 32.6303 13.771 32.6301H18.8123V30.3572H13.771L12.9501 26.3229C11.8144 25.9082 10.7602 25.3039 9.83398 24.5364L5.84839 25.8615L3.11964 21.2158L6.27042 18.494C6.05486 17.3188 6.05212 16.1154 6.26233 14.9393L3.11964 12.2243L5.84839 7.57863L9.81086 8.89688C10.7437 8.12835 11.8061 7.52607 12.9501 7.11724L13.771 3.08292H19.2285L20.0495 7.11724C21.1851 7.53193 22.2393 8.1363 23.1655 8.9037L27.1511 7.57863L29.8799 12.2243L26.6447 15.0109L28.1686 16.7201L31.4061 13.9313C31.8078 13.5846 32.0749 13.1119 32.162 12.5935C32.2491 12.0751 32.1507 11.5431 31.8837 11.0879Z" fill="url(#paint1_linear_469_530)"/>
<path d="M24.5938 28.2889L21.5991 25.3456L19.9688 26.9479L24.5938 31.4936L32.6875 23.5386L31.0572 21.9363L24.5938 28.2889Z" fill="url(#paint2_linear_469_530)"/>
<defs>
<linearGradient id="paint0_linear_469_530" x1="21.3032" y1="9.75684" x2="14.6987" y2="26.4182" gradientUnits="userSpaceOnUse">
<stop stop-color="#9907CC"/>
<stop offset="1" stop-color="#9907CC" stop-opacity="0.1"/>
</linearGradient>
<linearGradient id="paint1_linear_469_530" x1="27.3642" y1="0.472561" x2="11.6056" y2="39.0131" gradientUnits="userSpaceOnUse">
<stop stop-color="#9907CC"/>
<stop offset="1" stop-color="#9907CC" stop-opacity="0.1"/>
</linearGradient>
<linearGradient id="paint2_linear_469_530" x1="30.7308" y1="21.8349" x2="26.9805" y2="34.2096" gradientUnits="userSpaceOnUse">
<stop stop-color="#9907CC"/>
<stop offset="1" stop-color="#9907CC" stop-opacity="0.1"/>
</linearGradient>
</defs>
</svg>
