<svg width="35" height="35" viewBox="0 0 35 35" fill="none" xmlns="http://www.w3.org/2000/svg">
<rect width="35" height="35" rx="7" fill="white" fill-opacity="0.15"/>
<path d="M25.6231 12.8837C25.5212 12.5202 25.3227 12.1911 25.0487 11.9313C24.7669 11.6636 24.4216 11.4721 24.0453 11.3749C22.637 11.0037 16.9948 11.0037 16.9948 11.0037C14.6426 10.977 12.291 11.0947 9.9532 11.3562C9.57689 11.4606 9.23222 11.6563 8.94984 11.9261C8.67237 12.1931 8.4714 12.5223 8.36641 12.883C8.11422 14.2416 7.99168 15.6211 8.00046 17.0029C7.99146 18.3835 8.1137 19.7625 8.36641 21.1229C8.46915 21.4821 8.66937 21.8098 8.94759 22.0745C9.2258 22.3392 9.57225 22.5304 9.9532 22.6317C11.3803 23.0021 16.9948 23.0021 16.9948 23.0021C19.3499 23.0289 21.7045 22.9112 24.0453 22.6497C24.4216 22.5524 24.7669 22.3609 25.0487 22.0932C25.3226 21.8336 25.5209 21.5044 25.6223 21.1409C25.8811 19.7828 26.007 18.4027 25.998 17.0202C26.0175 15.6318 25.8918 14.2452 25.6231 12.883V12.8837ZM15.201 19.5706V14.436L19.8954 17.0037L15.201 19.5706Z" fill="white"/>
</svg>
