<svg width="35" height="35" viewBox="0 0 35 35" fill="none" xmlns="http://www.w3.org/2000/svg">
<rect width="35" height="35" rx="7" fill="white" fill-opacity="0.15"/>
<path d="M11.763 13.5159C12.7367 13.5159 13.526 12.7288 13.526 11.7579C13.526 10.7871 12.7367 10 11.763 10C10.7893 10 10 10.7871 10 11.7579C10 12.7288 10.7893 13.5159 11.763 13.5159Z" fill="white"/>
<path d="M15.1907 14.848V24.601H18.2276V19.7779C18.2276 18.5053 18.4678 17.2728 20.0503 17.2728C21.611 17.2728 21.6304 18.7278 21.6304 19.8583V24.6018H24.6689V19.2533C24.6689 16.626 24.1017 14.6069 21.022 14.6069C19.5434 14.6069 18.5524 15.416 18.1471 16.1817H18.106V14.848H15.1907ZM10.2417 14.848H13.2835V24.601H10.2417V14.848Z" fill="white"/>
</svg>
