<svg width="178" height="36" viewBox="0 0 178 36" fill="none" xmlns="http://www.w3.org/2000/svg">
<path d="M111.729 17.9908C112.72 18.3043 113.497 18.8323 114.059 19.5748C114.622 20.3008 114.902 21.2001 114.902 22.2726C114.902 23.7905 114.307 24.9621 113.117 25.7871C111.943 26.5956 110.224 26.9998 107.96 26.9998H98.9839V9.6748H107.464C109.58 9.6748 111.2 10.0791 112.324 10.8876C113.464 11.6961 114.034 12.7933 114.034 14.1793C114.034 15.0208 113.828 15.7715 113.415 16.4316C113.018 17.0916 112.456 17.6113 111.729 17.9908ZM102.976 12.6943V16.7781H106.968C107.96 16.7781 108.712 16.6048 109.224 16.2583C109.737 15.9118 109.993 15.4003 109.993 14.7238C109.993 14.0473 109.737 13.544 109.224 13.2141C108.712 12.8676 107.96 12.6943 106.968 12.6943H102.976ZM107.662 23.9803C108.72 23.9803 109.514 23.8071 110.042 23.4606C110.588 23.1141 110.861 22.5778 110.861 21.8518C110.861 20.4163 109.794 19.6986 107.662 19.6986H102.976V23.9803H107.662ZM124.018 27.1978C122.613 27.1978 121.349 26.909 120.224 26.3316C119.117 25.7376 118.25 24.9208 117.621 23.8813C116.993 22.8418 116.678 21.662 116.678 20.3421C116.678 19.0221 116.993 17.8423 117.621 16.8028C118.25 15.7633 119.117 14.9548 120.224 14.3773C121.349 13.7833 122.613 13.4863 124.018 13.4863C125.423 13.4863 126.68 13.7833 127.787 14.3773C128.895 14.9548 129.762 15.7633 130.39 16.8028C131.019 17.8423 131.332 19.0221 131.332 20.3421C131.332 21.662 131.019 22.8418 130.39 23.8813C129.762 24.9208 128.895 25.7376 127.787 26.3316C126.68 26.909 125.423 27.1978 124.018 27.1978ZM124.018 24.0298C125.01 24.0298 125.82 23.6998 126.448 23.0398C127.092 22.3633 127.415 21.464 127.415 20.3421C127.415 19.2201 127.092 18.3291 126.448 17.6691C125.82 16.9926 125.01 16.6543 124.018 16.6543C123.026 16.6543 122.208 16.9926 121.563 17.6691C120.918 18.3291 120.596 19.2201 120.596 20.3421C120.596 21.464 120.918 22.3633 121.563 23.0398C122.208 23.6998 123.026 24.0298 124.018 24.0298ZM140.265 27.1978C138.861 27.1978 137.596 26.909 136.472 26.3316C135.365 25.7376 134.497 24.9208 133.868 23.8813C133.24 22.8418 132.926 21.662 132.926 20.3421C132.926 19.0221 133.24 17.8423 133.868 16.8028C134.497 15.7633 135.365 14.9548 136.472 14.3773C137.596 13.7833 138.861 13.4863 140.265 13.4863C141.671 13.4863 142.927 13.7833 144.034 14.3773C145.142 14.9548 146.01 15.7633 146.638 16.8028C147.266 17.8423 147.58 19.0221 147.58 20.3421C147.58 21.662 147.266 22.8418 146.638 23.8813C146.01 24.9208 145.142 25.7376 144.034 26.3316C142.927 26.909 141.671 27.1978 140.265 27.1978ZM140.265 24.0298C141.257 24.0298 142.067 23.6998 142.695 23.0398C143.34 22.3633 143.662 21.464 143.662 20.3421C143.662 19.2201 143.34 18.3291 142.695 17.6691C142.067 16.9926 141.257 16.6543 140.265 16.6543C139.273 16.6543 138.455 16.9926 137.811 17.6691C137.166 18.3291 136.844 19.2201 136.844 20.3421C136.844 21.464 137.166 22.3633 137.811 23.0398C138.455 23.6998 139.273 24.0298 140.265 24.0298ZM154.653 27.1978C153.546 27.1978 152.463 27.0658 151.405 26.8018C150.348 26.5213 149.505 26.1748 148.876 25.7623L150.165 22.9903C150.76 23.3698 151.479 23.6833 152.322 23.9308C153.165 24.1618 153.993 24.2773 154.802 24.2773C156.438 24.2773 157.257 23.8731 157.257 23.0646C157.257 22.6851 157.033 22.4128 156.587 22.2478C156.141 22.0828 155.456 21.9426 154.529 21.8271C153.438 21.662 152.538 21.4723 151.826 21.2578C151.116 21.0433 150.497 20.6638 149.967 20.1193C149.455 19.5748 149.198 18.7993 149.198 17.7928C149.198 16.9513 149.438 16.2088 149.917 15.5653C150.413 14.9053 151.124 14.3938 152.05 14.0308C152.992 13.6678 154.1 13.4863 155.372 13.4863C156.314 13.4863 157.249 13.5935 158.174 13.8081C159.116 14.0061 159.894 14.2865 160.505 14.6496L159.215 17.3968C158.042 16.7368 156.761 16.4068 155.372 16.4068C154.546 16.4068 153.926 16.5223 153.513 16.7533C153.1 16.9843 152.893 17.2813 152.893 17.6443C152.893 18.0568 153.116 18.3455 153.562 18.5106C154.008 18.6756 154.72 18.8323 155.694 18.9808C156.785 19.1623 157.678 19.3603 158.372 19.5748C159.067 19.7728 159.671 20.1441 160.182 20.6886C160.695 21.2331 160.951 21.9921 160.951 22.9656C160.951 23.7905 160.703 24.5248 160.207 25.1683C159.711 25.8118 158.984 26.315 158.025 26.6781C157.083 27.0246 155.959 27.1978 154.653 27.1978ZM171.942 26.3563C171.561 26.6368 171.09 26.8513 170.529 26.9998C169.983 27.1318 169.404 27.1978 168.793 27.1978C167.206 27.1978 165.974 26.7936 165.099 25.9851C164.239 25.1765 163.809 23.9885 163.809 22.4211V16.9513H161.751V13.9813H163.809V10.7391H167.677V13.9813H171V16.9513H167.677V22.3716C167.677 22.9326 167.817 23.3698 168.099 23.6833C168.396 23.9803 168.809 24.1288 169.338 24.1288C169.949 24.1288 170.47 23.9638 170.901 23.6338L171.942 26.3563Z" fill="white"/>
<path d="M175.576 27.1977C174.898 27.1977 174.328 26.9668 173.865 26.5047C173.403 26.0427 173.17 25.4652 173.17 24.7722C173.17 24.0627 173.403 23.4935 173.865 23.0645C174.328 22.619 174.898 22.3962 175.576 22.3962C176.254 22.3962 176.824 22.619 177.286 23.0645C177.75 23.4935 177.981 24.0627 177.981 24.7722C177.981 25.4652 177.75 26.0427 177.286 26.5047C176.824 26.9668 176.254 27.1977 175.576 27.1977Z" fill="white"/>
<path d="M46.0127 9.6748H53.8975C55.7819 9.6748 57.4432 10.0378 58.8813 10.7638C60.336 11.4733 61.46 12.4798 62.2534 13.7833C63.0634 15.0868 63.4684 16.6048 63.4684 18.3373C63.4684 20.0698 63.0634 21.5878 62.2534 22.8913C61.46 24.1948 60.336 25.2096 58.8813 25.9356C57.4432 26.6451 55.7819 26.9998 53.8975 26.9998H46.0127V9.6748ZM53.6991 23.7081C55.4348 23.7081 56.8151 23.2296 57.8399 22.2726C58.8813 21.2991 59.402 19.9873 59.402 18.3373C59.402 16.6873 58.8813 15.3838 57.8399 14.4268C56.8151 13.4533 55.4348 12.9666 53.6991 12.9666H50.0295V23.7081H53.6991ZM79.2918 20.3916C79.2918 20.4411 79.267 20.7876 79.2174 21.4311H69.1259C69.3077 22.256 69.7374 22.9078 70.4152 23.3863C71.0929 23.8648 71.9359 24.1041 72.9443 24.1041C73.6386 24.1041 74.2501 24.0051 74.7791 23.8071C75.3246 23.5925 75.8288 23.2626 76.2916 22.8171L78.3496 25.0446C77.0933 26.4801 75.2585 27.1978 72.8451 27.1978C71.3409 27.1978 70.0102 26.909 68.8531 26.3316C67.696 25.7376 66.8034 24.9208 66.1753 23.8813C65.5471 22.8418 65.2331 21.662 65.2331 20.3421C65.2331 19.0385 65.5388 17.8671 66.1505 16.8276C66.7786 15.7715 67.6299 14.9548 68.7044 14.3773C69.7954 13.7833 71.0103 13.4863 72.3492 13.4863C73.655 13.4863 74.837 13.7668 75.8949 14.3278C76.9528 14.8888 77.7793 15.6973 78.3744 16.7533C78.986 17.7928 79.2918 19.0056 79.2918 20.3916ZM72.374 16.4068C71.4979 16.4068 70.7624 16.6543 70.1673 17.1493C69.5722 17.6443 69.2085 18.3208 69.0763 19.1788H75.647C75.5146 18.3373 75.1511 17.6691 74.556 17.1741C73.9609 16.6625 73.2335 16.4068 72.374 16.4068ZM94.8653 13.6843L89.2369 26.9998H85.2449L79.6412 13.6843H83.6332L87.3277 22.7428L91.1461 13.6843H94.8653Z" fill="white"/>
<path d="M35.9636 16.0786H3.97792C4.14469 14.8444 4.47383 13.6432 4.9624 12.4903C5.6765 10.8051 6.6999 9.29041 8.0036 7.98909C8.23209 7.76101 8.46718 7.54137 8.70852 7.33126C8.8235 7.45337 8.94031 7.57364 9.05933 7.69245C10.507 9.1375 12.1932 10.272 14.0714 11.0651C16.0168 11.8861 18.0823 12.303 20.2103 12.303H35.1437C34.6894 10.9426 34.0766 9.65451 33.3273 8.46026C30.1399 3.37926 24.4818 0 18.0327 0C15.0032 0 12.1483 0.745448 9.6423 2.0629C8.49216 2.66756 7.41549 3.39246 6.42918 4.22115C2.95965 7.1351 0.606111 11.3317 0.101753 16.0786C0.0345299 16.7101 0 17.3507 0 18C0 18.6493 0.0345299 19.2899 0.101753 19.9214H32.0872C31.9204 21.1556 31.5913 22.3568 31.1027 23.5097C30.3885 25.1948 29.3651 26.7096 28.0615 28.0106C27.8329 28.2386 27.5978 28.4582 27.3565 28.6687C27.2416 28.5466 27.1247 28.4261 27.0057 28.3071C25.558 26.8622 23.8719 25.7276 21.9937 24.9345C20.0483 24.1136 17.9831 23.6967 15.8547 23.6967H0.921655C1.37605 25.057 1.98878 26.3451 2.73815 27.5393C5.92556 32.6207 11.5836 36 18.0327 36C21.0617 36 23.9168 35.2546 26.4228 33.9371C27.5729 33.3329 28.6499 32.6076 29.6362 31.7792C33.1058 28.8646 35.4593 24.6683 35.9636 19.9214C36.0309 19.2899 36.0654 18.6493 36.0654 18C36.0654 17.3507 36.0309 16.7101 35.9636 16.0786ZM12.513 4.95376C14.259 4.21675 16.1163 3.84274 18.0327 3.84274C19.9491 3.84274 21.806 4.21638 23.552 4.95376C25.2403 5.66657 26.7577 6.68813 28.0615 7.98909C28.2158 8.14345 28.3663 8.30038 28.5129 8.46062H20.2103C17.0325 8.46062 14.1408 7.21284 12.0013 5.18183C12.1704 5.10226 12.3408 5.02636 12.513 4.95376ZM23.552 31.0463C21.806 31.7833 19.9491 32.1572 18.0327 32.1572C16.1163 32.1572 14.259 31.7833 12.513 31.0463C10.8248 30.3334 9.30729 29.3119 8.0036 28.0106C7.84931 27.8566 7.6987 27.6996 7.5525 27.5393H15.8547C19.0326 27.5393 21.9243 28.7872 24.0637 30.8181C23.8947 30.8978 23.7243 30.9736 23.552 31.0463Z" fill="white"/>
</svg>
